<?xml version="1.0" encoding="utf-8"?>
<!-- Generator: Adobe Illustrator 25.1.0, SVG Export Plug-In . SVG Version: 6.00 Build 0)  -->
<svg version="1.1" id="Icons" xmlns="http://www.w3.org/2000/svg" xmlns:xlink="http://www.w3.org/1999/xlink" x="0px" y="0px"
	 viewBox="0 0 117 93" style="enable-background:new 0 0 117 93;" xml:space="preserve">
<style type="text/css">
	.st0{enable-background:new    ;}
	.st1{fill:#CACACA;}
</style>
<g class="st0">
	<path class="st1" d="M58.5,34.5c-9.1,0-16.4,7.3-16.4,16.4c0,9.1,7.3,16.4,16.4,16.4c9.1,0,16.4-7.3,16.4-16.4
		C74.9,41.8,67.5,34.5,58.5,34.5z"/>
	<path class="st1" d="M104,18.1H38.8v-6.6H19.1v6.6h-6.2c-3.8,0-6.9,3.1-6.9,7v51.7c0,3.8,3.1,6.9,6.9,6.9H104
		c3.8,0,6.9-3.1,6.9-6.9V25C111,21.2,107.9,18.1,104,18.1z M58.5,77.1c-14.5,0-26.2-11.8-26.2-26.2c0-14.5,11.8-26.2,26.2-26.2
		c14.5,0,26.2,11.7,26.2,26.2C84.7,65.4,73,77.1,58.5,77.1z M91.3,37.8c-3.6,0-6.6-2.9-6.6-6.6c0-3.6,2.9-6.6,6.6-6.6
		c3.6,0,6.6,2.9,6.6,6.6C97.9,34.8,94.9,37.8,91.3,37.8z"/>
</g>
</svg>
